<svg width="15" height="17" viewBox="0 0 15 17" fill="none" xmlns="http://www.w3.org/2000/svg">
<g clip-path="url(#clip0)">
<path d="M12.1966 9.03189C12.1771 6.88222 13.9728 5.8502 14.054 5.79989C13.0435 4.33858 11.4709 4.13839 10.9099 4.11484C9.57228 3.98102 8.29859 4.89313 7.62058 4.89313C6.94258 4.89313 5.89416 4.13411 4.78509 4.15553C3.32511 4.17694 1.98101 4.99376 1.22936 6.28485C-0.285863 8.88308 0.842702 12.7339 2.31785 14.8428C3.04026 15.8738 3.90022 17.0353 5.03095 16.9925C6.12052 16.9497 6.53209 16.2966 7.84694 16.2966C9.1618 16.2966 9.53221 16.9925 10.6835 16.9722C11.8543 16.9497 12.5973 15.9187 13.3143 14.8846C14.1418 13.6877 14.484 12.5294 14.5035 12.4684C14.4775 12.4576 12.2204 11.6023 12.1966 9.03189Z" fill="#243656"/>
<path d="M10.0337 2.7202C10.6337 2.00186 11.0387 1.00302 10.9272 0.00744629C10.0628 0.041741 9.01663 0.576991 8.39601 1.29533C7.8404 1.9302 7.35302 2.94719 7.4851 3.9225C8.44907 3.99637 9.43354 3.43749 10.0337 2.7202Z" fill="#243656"/>
</g>
<defs>
<clipPath id="clip0">
<rect width="14" height="17" fill="white" transform="translate(0.507278)"/>
</clipPath>
</defs>
</svg>
