<svg width="21" height="23" viewBox="0 0 21 23" fill="none" xmlns="http://www.w3.org/2000/svg">
<g filter="url(#filter0_d)">
<path d="M16.4108 10.2812C16.1629 11.0014 15.8147 11.633 15.366 12.176C14.7994 12.8608 14.1029 13.3802 13.2765 13.7344C12.4619 14.0885 11.5942 14.2656 10.6733 14.2656C9.7289 14.2656 8.84348 14.0826 8.01709 13.7167C7.1907 13.3507 6.51188 12.8372 5.98063 12.176C4.97716 10.9601 4.47542 9.44306 4.47542 7.625C4.47542 5.78333 4.97716 4.26042 5.98063 3.05625C6.52369 2.37153 7.20251 1.85799 8.01709 1.51562C8.84348 1.16146 9.7289 0.984374 10.6733 0.984374C11.6178 0.984374 12.4973 1.16146 13.3119 1.51562C14.1265 1.86979 14.8112 2.38333 15.366 3.05625C15.8855 3.70555 16.2751 4.46111 16.5348 5.32292L14.0556 5.74792C13.8904 5.22847 13.6897 4.82118 13.4535 4.52604C13.1466 4.11285 12.7452 3.7941 12.2494 3.56979C11.7535 3.34549 11.2282 3.23333 10.6733 3.23333C10.1067 3.23333 9.57542 3.34549 9.07959 3.56979C8.59556 3.7941 8.20008 4.11285 7.89313 4.52604C7.33827 5.23437 7.04903 6.26736 7.02542 7.625C7.04903 8.97083 7.33827 10.0038 7.89313 10.724C8.18827 11.1372 8.57785 11.4559 9.06188 11.6802C9.54591 11.8927 10.0595 11.999 10.6025 11.999C11.181 11.999 11.7181 11.8927 12.214 11.6802C12.7216 11.4677 13.1348 11.149 13.4535 10.724C13.7015 10.3816 13.8904 10.0038 14.0202 9.59062L16.4108 10.2812Z" fill="#243656"/>
</g>
<defs>
<filter id="filter0_d" x="0.475464" y="0.984375" width="20.0594" height="21.2813" filterUnits="userSpaceOnUse" color-interpolation-filters="sRGB">
<feFlood flood-opacity="0" result="BackgroundImageFix"/>
<feColorMatrix in="SourceAlpha" type="matrix" values="0 0 0 0 0 0 0 0 0 0 0 0 0 0 0 0 0 0 127 0"/>
<feOffset dy="4"/>
<feGaussianBlur stdDeviation="2"/>
<feColorMatrix type="matrix" values="0 0 0 0 0 0 0 0 0 0 0 0 0 0 0 0 0 0 0.25 0"/>
<feBlend mode="normal" in2="BackgroundImageFix" result="effect1_dropShadow"/>
<feBlend mode="normal" in="SourceGraphic" in2="effect1_dropShadow" result="shape"/>
</filter>
</defs>
</svg>
