<svg width="375" height="333" viewBox="0 0 375 333" fill="none" xmlns="http://www.w3.org/2000/svg">
<g filter="url(#filter0_d)">
<path d="M0 0H375V231C375 253.644 356.644 272 334 272H0V0Z" fill="url(#paint0_radial)"/>
</g>
<g opacity="0.15">
<path fill-rule="evenodd" clip-rule="evenodd" d="M211.471 -14.9253C194.681 -34.055 164.348 -42.2502 125.538 -42.2502H12.8797C4.94942 -42.2502 -1.80309 -36.4803 -3.03988 -28.6468L-49.9494 268.794C-50.876 274.663 -46.3387 279.968 -40.3984 279.968H29.1499L24.3504 310.405C23.5419 315.54 27.507 320.184 32.7052 320.184H91.3255C98.2663 320.184 104.173 315.134 105.255 308.283L105.831 305.303L116.874 235.282L117.586 231.413C118.668 224.558 124.575 219.511 131.512 219.511H140.28C197.073 219.511 241.542 196.439 254.534 129.718C259.965 101.839 257.159 78.5674 242.801 62.2064C238.456 57.2597 233.054 53.1657 226.752 49.8285C231.175 21.636 226.723 2.45095 211.471 -14.9253Z" fill="white"/>
<path fill-rule="evenodd" clip-rule="evenodd" d="M226.752 49.8372C231.175 21.642 226.723 2.45516 211.471 -14.9227C194.681 -34.0542 164.348 -42.2502 125.538 -42.2502H12.8797C4.94943 -42.2502 -1.80309 -36.4798 -3.03988 -28.6455L-49.9494 268.823C-50.876 274.693 -46.3387 279.999 -40.3984 279.999H29.1499L46.6201 169.219L46.0774 172.693C47.3142 164.859 54.0113 159.085 61.9415 159.085H94.9989C159.918 159.085 210.748 132.71 225.6 56.4346C226.04 54.1789 226.416 51.9896 226.752 49.8372Z" fill="white"/>
<path fill-rule="evenodd" clip-rule="evenodd" d="M65.3861 50.2138C66.1318 45.4992 69.1555 41.6411 73.2277 39.6881C75.081 38.8021 77.1485 38.3073 79.3157 38.3073H167.623C178.085 38.3073 187.84 38.994 196.755 40.4302C199.307 40.84 201.784 41.3126 204.195 41.8479C206.602 42.3795 208.943 42.9776 211.206 43.6422C212.339 43.9707 213.45 44.3178 214.547 44.6833C218.925 46.1342 223.001 47.8509 226.752 49.8372C231.175 21.642 226.723 2.45516 211.471 -14.9227C194.681 -34.0542 164.348 -42.2502 125.538 -42.2502H12.8797C4.94943 -42.2502 -1.80309 -36.4798 -3.03988 -28.6455L-49.9494 268.823C-50.876 274.693 -46.3387 279.999 -40.3984 279.999H29.1499L65.3861 50.2138Z" fill="white"/>
</g>
<defs>
<filter id="filter0_d" x="-20" y="-4" width="415" height="312" filterUnits="userSpaceOnUse" color-interpolation-filters="sRGB">
<feFlood flood-opacity="0" result="BackgroundImageFix"/>
<feColorMatrix in="SourceAlpha" type="matrix" values="0 0 0 0 0 0 0 0 0 0 0 0 0 0 0 0 0 0 127 0"/>
<feMorphology radius="16" operator="erode" in="SourceAlpha" result="effect1_dropShadow"/>
<feOffset dy="16"/>
<feGaussianBlur stdDeviation="18"/>
<feColorMatrix type="matrix" values="0 0 0 0 0.0823529 0 0 0 0 0.27451 0 0 0 0 0.627451 0 0 0 0.5 0"/>
<feBlend mode="normal" in2="BackgroundImageFix" result="effect1_dropShadow"/>
<feBlend mode="normal" in="SourceGraphic" in2="effect1_dropShadow" result="shape"/>
</filter>
<radialGradient id="paint0_radial" cx="0" cy="0" r="1" gradientUnits="userSpaceOnUse" gradientTransform="translate(-83.5 -74.4762) rotate(33.3373) scale(548.806 680.547)">
<stop stop-color="#0070BA"/>
<stop offset="1" stop-color="#1546A0"/>
</radialGradient>
</defs>
</svg>
