<svg width="375" height="192" viewBox="0 0 375 192" fill="none" xmlns="http://www.w3.org/2000/svg">
<g clip-path="url(#clip0)">
<path d="M0 0H375V192H0V0Z" fill="url(#paint0_radial)"/>
<g opacity="0.15">
<path fill-rule="evenodd" clip-rule="evenodd" d="M85.4715 18.0747C68.6806 -1.05497 38.3479 -9.25024 -0.461563 -9.25024H-113.12C-121.051 -9.25024 -127.803 -3.48032 -129.04 4.35318L-175.949 301.794C-176.876 307.663 -172.339 312.968 -166.398 312.968H-96.8501L-101.65 343.405C-102.458 348.54 -98.493 353.184 -93.2948 353.184H-34.6745C-27.7337 353.184 -21.8267 348.134 -20.7449 341.283L-20.169 338.303L-9.1265 268.282L-8.41396 264.413C-7.33221 257.558 -1.42516 252.511 5.51196 252.511H14.2802C71.073 252.511 115.542 229.439 128.534 162.718C133.965 134.839 131.159 111.567 116.801 95.2064C112.456 90.2597 107.054 86.1657 100.752 82.8285C105.175 54.636 100.723 35.451 85.4715 18.0747Z" fill="white"/>
<path fill-rule="evenodd" clip-rule="evenodd" d="M100.752 82.8372C105.175 54.642 100.723 35.4552 85.4715 18.0773C68.6806 -1.05419 38.3479 -9.25024 -0.461548 -9.25024H-113.12C-121.051 -9.25024 -127.803 -3.47978 -129.04 4.35446L-175.949 301.823C-176.876 307.693 -172.339 312.999 -166.398 312.999H-96.8501L-79.3799 202.219L-79.9226 205.693C-78.6858 197.859 -71.9887 192.085 -64.0585 192.085H-31.0011C33.9176 192.085 84.7479 165.71 99.6004 89.4346C100.04 87.1789 100.416 84.9896 100.752 82.8372Z" fill="white"/>
<path fill-rule="evenodd" clip-rule="evenodd" d="M-60.6139 83.2138C-59.8682 78.4992 -56.8445 74.6411 -52.7723 72.6881C-50.919 71.8021 -48.8515 71.3073 -46.6843 71.3073H41.6226C52.0855 71.3073 61.8395 71.994 70.7555 73.4302C73.3066 73.84 75.7839 74.3126 78.1947 74.8479C80.6018 75.3795 82.9425 75.9776 85.2057 76.6422C86.3391 76.9707 87.4503 77.3178 88.5468 77.6833C92.9255 79.1342 97.0013 80.8509 100.752 82.8372C105.175 54.642 100.723 35.4552 85.4715 18.0773C68.6806 -1.05419 38.3479 -9.25024 -0.461548 -9.25024H-113.12C-121.051 -9.25024 -127.803 -3.47978 -129.04 4.35446L-175.949 301.823C-176.876 307.693 -172.339 312.999 -166.398 312.999H-96.8501L-60.6139 83.2138Z" fill="white"/>
</g>
</g>
<defs>
<radialGradient id="paint0_radial" cx="0" cy="0" r="1" gradientUnits="userSpaceOnUse" gradientTransform="translate(-83.5 -52.5714) rotate(24.9071) scale(505.517 521.523)">
<stop stop-color="#0070BA"/>
<stop offset="1" stop-color="#1546A0"/>
</radialGradient>
<clipPath id="clip0">
<rect width="375" height="192" fill="white"/>
</clipPath>
</defs>
</svg>
