<svg width="28" height="33" viewBox="0 0 28 33" fill="none" xmlns="http://www.w3.org/2000/svg">
<path fill-rule="evenodd" clip-rule="evenodd" d="M23.9074 2.8424C22.4038 1.12929 19.6874 0.395386 16.212 0.395386H6.12311C5.41294 0.395386 4.80823 0.912095 4.69748 1.6136L0.496628 28.2501C0.413643 28.7757 0.819974 29.2508 1.35194 29.2508H7.58015L7.15034 31.9765C7.07794 32.4363 7.43302 32.8522 7.89853 32.8522H13.1481C13.7697 32.8522 14.2987 32.4 14.3955 31.7864L14.4471 31.5196L15.436 25.249L15.4998 24.9025C15.5967 24.2886 16.1257 23.8367 16.7469 23.8367H17.5321C22.618 23.8367 26.6003 21.7706 27.7638 15.7955C28.2501 13.2989 27.9989 11.2149 26.7131 9.74971C26.3239 9.30672 25.8402 8.9401 25.2759 8.64124C25.672 6.11654 25.2732 4.39848 23.9074 2.8424Z" fill="white" fill-opacity="0.5"/>
<path fill-rule="evenodd" clip-rule="evenodd" d="M25.2759 8.64202C25.672 6.11708 25.2732 4.39885 23.9074 2.84263C22.4038 1.12936 19.6874 0.395386 16.212 0.395386H6.12311C5.41294 0.395386 4.80823 0.912144 4.69748 1.61372L0.496628 28.2527C0.413643 28.7784 0.819974 29.2535 1.35194 29.2535H7.58015L9.14464 19.3329L9.09603 19.644C9.20679 18.9425 9.80653 18.4254 10.5167 18.4254H13.4771C19.2907 18.4254 23.8426 16.0634 25.1727 9.23284C25.2121 9.03083 25.2458 8.83477 25.2759 8.64202Z" fill="white" fill-opacity="0.66"/>
<path fill-rule="evenodd" clip-rule="evenodd" d="M10.8252 8.67575C10.892 8.25354 11.1627 7.90805 11.5274 7.73315C11.6934 7.6538 11.8785 7.6095 12.0726 7.6095H19.9807C20.9177 7.6095 21.7912 7.67099 22.5896 7.7996C22.8181 7.8363 23.0399 7.87862 23.2558 7.92656C23.4714 7.97417 23.681 8.02773 23.8836 8.08724C23.9851 8.11667 24.0847 8.14775 24.1829 8.18048C24.575 8.31041 24.94 8.46415 25.2759 8.64202C25.672 6.11708 25.2732 4.39885 23.9074 2.84263C22.4038 1.12936 19.6874 0.395386 16.212 0.395386H6.12311C5.41294 0.395386 4.80823 0.912144 4.69748 1.61372L0.496628 28.2527C0.413643 28.7784 0.819974 29.2535 1.35194 29.2535H7.58015L10.8252 8.67575Z" fill="white"/>
</svg>
