<svg width="194" height="47" viewBox="0 0 194 47" fill="none" xmlns="http://www.w3.org/2000/svg">
<path d="M149.181 10.5112H138.529C137.803 10.5112 137.18 11.0419 137.067 11.7605L132.76 39.0736C132.675 39.6118 133.092 40.0985 133.638 40.0985H139.102C139.61 40.0985 140.045 39.7286 140.124 39.2252L141.347 31.4823C141.46 30.7637 142.08 30.233 142.809 30.233H146.179C153.196 30.233 157.244 26.8384 158.302 20.1083C158.778 17.1655 158.323 14.8519 156.944 13.2327C155.431 11.4512 152.744 10.5112 149.181 10.5112ZM150.411 20.4858C149.829 24.3095 146.909 24.3095 144.084 24.3095H142.475L143.603 17.1716C143.672 16.7395 144.043 16.4211 144.48 16.4211H145.215C147.139 16.4211 148.955 16.4211 149.891 17.5173C150.452 18.1722 150.623 19.1426 150.411 20.4858Z" fill="#0070BA"/>
<path d="M73.2111 10.5116H62.5603C61.8311 10.5116 61.211 11.0422 61.0973 11.7609L56.7899 39.0739C56.705 39.6122 57.122 40.0989 57.6678 40.0989H62.7529C63.4806 40.0989 64.1007 39.5697 64.2144 38.8511L65.3773 31.4827C65.491 30.764 66.1111 30.2334 66.8388 30.2334H70.2092C77.2243 30.2334 81.2739 26.8388 82.3337 20.1087C82.8097 17.1659 82.3519 14.8523 80.9752 13.233C79.4591 11.4516 76.774 10.5116 73.2111 10.5116ZM74.4407 20.4862C73.8585 24.3099 70.9385 24.3099 68.1139 24.3099H66.5068L67.6333 17.172C67.7015 16.7399 68.0745 16.4215 68.5111 16.4215H69.248C71.1704 16.4215 72.9867 16.4215 73.9222 17.5176C74.4816 18.1726 74.6515 19.1429 74.4407 20.4862Z" fill="#005EA6"/>
<path d="M105.047 20.3648H99.9483C99.5101 20.3648 99.1387 20.6816 99.0704 21.1137L98.8476 22.5389L98.4898 22.0219C97.386 20.4178 94.9238 19.8842 92.4662 19.8842C86.8322 19.8842 82.0185 24.1536 81.0816 30.1423C80.5934 33.1306 81.2862 35.9854 82.9798 37.9792C84.5353 39.8106 86.758 40.5717 89.4036 40.5717C93.9444 40.5717 96.4642 37.6547 96.4642 37.6547L96.2368 39.0723C96.1519 39.6105 96.5673 40.0987 97.1131 40.0987H101.707C102.435 40.0987 103.055 39.5696 103.17 38.8524L105.925 21.3912C106.01 20.8499 105.593 20.3648 105.047 20.3648ZM97.9394 30.2909C97.4467 33.2064 95.133 35.1607 92.1827 35.1607C90.7029 35.1607 89.5188 34.6846 88.7577 33.7855C88.0027 32.891 87.7192 31.619 87.9587 30.2029C88.4181 27.3147 90.7696 25.2952 93.6761 25.2952C95.124 25.2952 96.299 25.7743 97.0767 26.6855C97.856 27.6013 98.1638 28.8824 97.9394 30.2909Z" fill="#005EA6"/>
<path d="M181.017 20.3648H175.918C175.482 20.3648 175.11 20.6816 175.042 21.1137L174.818 22.5389L174.461 22.0219C173.356 20.4178 170.896 19.8842 168.438 19.8842C162.801 19.8842 157.987 24.1536 157.052 30.1423C156.565 33.1306 157.256 35.9854 158.95 37.9792C160.506 39.8106 162.728 40.5717 165.374 40.5717C169.915 40.5717 172.434 37.6547 172.434 37.6547L172.207 39.0723C172.121 39.6105 172.539 40.0987 173.083 40.0987H177.677C178.403 40.0987 179.025 39.5696 179.139 38.8524L181.895 21.3912C181.98 20.8499 181.563 20.3648 181.017 20.3648ZM173.91 30.2909C173.417 33.2064 171.103 35.1607 168.153 35.1607C166.673 35.1607 165.489 34.6846 164.726 33.7855C163.974 32.891 163.688 31.619 163.929 30.2029C164.39 27.3147 166.738 25.2952 169.645 25.2952C171.094 25.2952 172.269 25.7743 173.045 26.6855C173.826 27.6013 174.134 28.8824 173.91 30.2909Z" fill="#0070BA"/>
<path d="M132.213 20.3646H127.085C126.596 20.3646 126.136 20.6072 125.86 21.012L118.789 31.4278L115.79 21.4199C115.604 20.7922 115.026 20.3646 114.373 20.3646H109.333C108.725 20.3646 108.298 20.9635 108.492 21.5381L114.138 38.1079L108.828 45.5991C108.413 46.1873 108.834 47 109.554 47H114.677C115.161 47 115.616 46.7619 115.893 46.3632L132.944 21.7579C133.35 21.1682 132.929 20.3646 132.213 20.3646Z" fill="#005EA6"/>
<path d="M187.029 11.2602L182.658 39.0721C182.571 39.6103 182.988 40.097 183.534 40.097H187.931C188.658 40.097 189.278 39.5679 189.392 38.8508L193.703 11.5362C193.787 10.998 193.371 10.5098 192.826 10.5098H187.905C187.47 10.5113 187.097 10.8297 187.029 11.2602Z" fill="#0070BA"/>
<path d="M35.8947 11.941C36.4678 8.28413 35.8917 5.79616 33.9131 3.54319C31.736 1.06281 27.8031 0 22.7711 0H8.16321C7.13527 0 6.25895 0.748968 6.09824 1.76477L0.0155306 40.3351C-0.104244 41.0977 0.484014 41.7845 1.25421 41.7845H10.2721L9.64901 45.7325C9.5444 46.3981 10.0599 47 10.7346 47H18.3364C19.2355 47 20.0011 46.345 20.1421 45.4566L20.2164 45.07L21.6477 35.9899L21.7401 35.488C21.8811 34.5996 22.6468 33.9431 23.5459 33.9431H24.683C32.0468 33.9431 37.8126 30.9533 39.497 22.2992C40.202 18.6848 39.8382 15.6662 37.9764 13.5451C37.4124 12.9053 36.7119 12.3746 35.8947 11.941Z" fill="#0070BA"/>
<path d="M35.8947 11.941C36.4678 8.28413 35.8917 5.79616 33.9131 3.54319C31.736 1.06281 27.8031 0 22.7711 0H8.16321C7.13527 0 6.25895 0.748968 6.09824 1.76477L0.0155306 40.3351C-0.104244 41.0977 0.484014 41.7845 1.25421 41.7845H10.2721L12.5372 27.4192L12.4675 27.871C12.6282 26.8537 13.4954 26.1062 14.5249 26.1062H18.811C27.2285 26.1062 33.8191 22.6858 35.7461 12.7961C35.8022 12.5035 35.8508 12.2215 35.8947 11.941Z" fill="#1546A0"/>
<path d="M14.9721 11.9895C15.0677 11.3785 15.4603 10.8782 15.988 10.625C16.2275 10.5098 16.4959 10.4461 16.7779 10.4461H28.2292C29.5861 10.4461 30.8506 10.5356 32.0074 10.7221C32.3379 10.7751 32.6593 10.8358 32.9716 10.9055C33.284 10.9737 33.5872 11.0511 33.8813 11.1375C34.0284 11.1799 34.1724 11.2254 34.3149 11.2724C34.8835 11.4619 35.4126 11.6833 35.8978 11.941C36.4709 8.28413 35.8947 5.79616 33.9162 3.54319C31.736 1.06281 27.8031 0 22.7711 0H8.16321C7.13527 0 6.25895 0.748968 6.09824 1.76477L0.0155306 40.3351C-0.104244 41.0977 0.484014 41.7845 1.25421 41.7845H10.2721L12.5372 27.4192L14.9721 11.9895Z" fill="#005EA6"/>
</svg>
