<svg width="21" height="20" viewBox="0 0 21 20" fill="none" xmlns="http://www.w3.org/2000/svg">
<path fill-rule="evenodd" clip-rule="evenodd" d="M13.7382 7.51639C14.5698 8.02979 14.9857 8.28649 15.0585 8.73784C15.1314 9.1892 14.8415 9.53508 14.2617 10.2268C13.1843 11.5123 11.8716 12.7 10.5066 13.5C9.15981 14.2895 7.78846 14.6862 6.32047 14.9077C5.42696 15.0425 4.98021 15.1099 4.6389 14.8373C4.29759 14.5647 4.26241 14.0855 4.19205 13.1272L3.59411 4.98235C3.46866 3.27364 3.40594 2.41929 3.92922 2.10169C4.45251 1.78409 5.18145 2.23408 6.63933 3.13408L13.7382 7.51639ZM6.96745 9.63887C6.79887 9.63887 6.63407 9.68969 6.4939 9.78491C6.35373 9.88013 6.24449 10.0155 6.17997 10.1738C6.11546 10.3322 6.09858 10.5064 6.13147 10.6745C6.16436 10.8426 6.24554 10.997 6.36474 11.1182C6.48395 11.2394 6.63582 11.3219 6.80116 11.3554C6.96651 11.3888 7.13789 11.3716 7.29363 11.306C7.44938 11.2405 7.5825 11.1294 7.67616 10.9869C7.76982 10.8444 7.81981 10.6768 7.81981 10.5054C7.81981 10.2756 7.73001 10.0552 7.57016 9.89268C7.41031 9.73017 7.19351 9.63887 6.96745 9.63887ZM6.96745 5.75665C6.79887 5.75665 6.63407 5.80748 6.4939 5.90269C6.35373 5.99791 6.24449 6.13325 6.17997 6.2916C6.11546 6.44994 6.09858 6.62418 6.13147 6.79228C6.16436 6.96037 6.24554 7.11478 6.36474 7.23597C6.48395 7.35716 6.63582 7.4397 6.80116 7.47313C6.96651 7.50657 7.13789 7.48941 7.29363 7.42382C7.44938 7.35823 7.5825 7.24716 7.67616 7.10466C7.76982 6.96215 7.81981 6.79461 7.81981 6.62322C7.81981 6.39339 7.73001 6.17298 7.57016 6.01046C7.41031 5.84795 7.19351 5.75665 6.96745 5.75665ZM9.94219 7.48979C9.71613 7.48979 9.49933 7.58108 9.33948 7.7436C9.17963 7.90611 9.08983 8.12652 9.08983 8.35635V9.22292C9.08983 9.45275 9.17963 9.67316 9.33948 9.83567C9.49933 9.99819 9.71613 10.0895 9.94219 10.0895C10.1682 10.0895 10.385 9.99819 10.5449 9.83567C10.7047 9.67316 10.7945 9.45275 10.7945 9.22292V8.35635C10.7945 8.12652 10.7047 7.90611 10.5449 7.7436C10.385 7.58108 10.1682 7.48979 9.94219 7.48979ZM18.1151 10.7367C18.3845 10.1592 18.0698 9.49401 17.4694 9.28066C16.8788 9.0708 16.2344 9.37838 15.9608 9.9423C14.9788 11.9665 13.4186 13.6674 11.4759 14.8101C9.5462 15.9451 7.346 16.4665 5.16571 16.3207C4.5289 16.2781 3.92712 16.6841 3.80433 17.3104C3.6781 17.9542 4.10521 18.5816 4.75908 18.6353C7.46254 18.8571 10.2004 18.2291 12.5945 16.821C15.0072 15.4018 16.9328 13.2714 18.1151 10.7367Z" fill="#243656"/>
</svg>
