<svg width="25" height="25" viewBox="0 0 25 25" fill="none" xmlns="http://www.w3.org/2000/svg">
<path d="M18.75 9.375H16.6667C16.3904 9.375 16.1254 9.48475 15.9301 9.6801C15.7347 9.87545 15.625 10.1404 15.625 10.4167C15.625 10.6929 15.7347 10.9579 15.9301 11.1532C16.1254 11.3486 16.3904 11.4583 16.6667 11.4583L18.75 11.4583C19.0263 11.4583 19.2912 11.5681 19.4866 11.7634C19.6819 11.9588 19.7917 12.2237 19.7917 12.5V19.7917C19.7917 20.0679 19.6819 20.3329 19.4866 20.5282C19.2912 20.7236 19.0263 20.8333 18.75 20.8333H6.25C5.97373 20.8333 5.70878 20.7236 5.51343 20.5282C5.31808 20.3329 5.20833 20.0679 5.20833 19.7917L5.20833 12.5C5.20833 12.2237 5.31808 11.9588 5.51343 11.7634C5.70878 11.5681 5.97373 11.4583 6.25 11.4583H8.33333C8.6096 11.4583 8.87455 11.3486 9.0699 11.1532C9.26525 10.9579 9.375 10.6929 9.375 10.4167C9.375 10.1404 9.26525 9.87545 9.0699 9.6801C8.87455 9.48475 8.6096 9.375 8.33333 9.375H6.25C5.4212 9.375 4.62634 9.70424 4.04029 10.2903C3.45424 10.8763 3.125 11.6712 3.125 12.5L3.125 19.7917C3.125 20.6205 3.45424 21.4153 4.04029 22.0014C4.62634 22.5874 5.4212 22.9167 6.25 22.9167H18.75C19.5788 22.9167 20.3737 22.5874 20.9597 22.0014C21.5458 21.4153 21.875 20.6205 21.875 19.7917V12.5C21.875 11.6712 21.5458 10.8763 20.9597 10.2903C20.3737 9.70424 19.5788 9.375 18.75 9.375Z" fill="#0070BA"/>
<path d="M14.5581 13.7604L13.2144 15.1146L13.2144 3.04169C13.2144 2.76542 13.1046 2.50047 12.9093 2.30512C12.7139 2.10977 12.449 2.00002 12.1727 2.00002C11.8964 2.00002 11.6315 2.10977 11.4361 2.30512C11.2408 2.50047 11.131 2.76542 11.131 3.04169L11.131 15.1146L9.78728 13.7604C9.69045 13.6628 9.57524 13.5853 9.4483 13.5324C9.32136 13.4795 9.18521 13.4523 9.0477 13.4523C8.91019 13.4523 8.77404 13.4795 8.6471 13.5324C8.52016 13.5853 8.40495 13.6628 8.30812 13.7604C8.21048 13.8573 8.13299 13.9725 8.08011 14.0994C8.02722 14.2264 7.99999 14.3625 7.99999 14.5C7.99999 14.6375 8.02722 14.7737 8.08011 14.9006C8.13299 15.0276 8.21048 15.1428 8.30812 15.2396L11.4331 18.3646C11.53 18.4622 11.6452 18.5397 11.7721 18.5926C11.899 18.6455 12.0352 18.6727 12.1727 18.6727C12.3102 18.6727 12.4464 18.6455 12.5733 18.5926C12.7002 18.5397 12.8154 18.4622 12.9123 18.3646L16.0373 15.2396C16.2334 15.0435 16.3436 14.7774 16.3436 14.5C16.3436 14.2226 16.2334 13.9566 16.0373 13.7604C15.8411 13.5643 15.5751 13.4541 15.2977 13.4541C15.0203 13.4541 14.7543 13.5643 14.5581 13.7604Z" fill="#0070BA"/>
</svg>
