<svg width="19" height="21" viewBox="0 0 19 21" fill="none" xmlns="http://www.w3.org/2000/svg">
<path d="M7.11458 4.98956L8.45833 3.63539L8.45833 15.7083C8.45833 15.9846 8.56808 16.2495 8.76343 16.4449C8.95878 16.6402 9.22373 16.75 9.5 16.75C9.77627 16.75 10.0412 16.6402 10.2366 16.4449C10.4319 16.2495 10.5417 15.9846 10.5417 15.7083L10.5417 3.63539L11.8854 4.98956C11.9823 5.08719 12.0975 5.16469 12.2244 5.21757C12.3513 5.27046 12.4875 5.29768 12.625 5.29768C12.7625 5.29768 12.8987 5.27046 13.0256 5.21757C13.1525 5.16469 13.2677 5.08719 13.3646 4.98956C13.4622 4.89272 13.5397 4.77751 13.5926 4.65058C13.6455 4.52364 13.6727 4.38749 13.6727 4.24998C13.6727 4.11246 13.6455 3.97631 13.5926 3.84938C13.5397 3.72244 13.4622 3.60723 13.3646 3.51039L10.2396 0.385394C10.1427 0.28776 10.0275 0.210266 9.9006 0.157382C9.77366 0.104498 9.63751 0.0772705 9.5 0.0772705C9.36249 0.0772705 9.22634 0.104498 9.0994 0.157382C8.97246 0.210266 8.85725 0.28776 8.76042 0.385394L5.63542 3.51039C5.43927 3.70654 5.32907 3.97258 5.32907 4.24998C5.32907 4.52738 5.43927 4.79341 5.63542 4.98956C5.83157 5.18571 6.0976 5.29591 6.375 5.29591C6.6524 5.29591 6.91843 5.18571 7.11458 4.98956ZM15.75 7.37498L13.6667 7.37498C13.3904 7.37498 13.1254 7.48472 12.9301 7.68008C12.7347 7.87543 12.625 8.14038 12.625 8.41664C12.625 8.69291 12.7347 8.95786 12.9301 9.15321C13.1254 9.34856 13.3904 9.45831 13.6667 9.45831H15.75C16.0263 9.45831 16.2912 9.56806 16.4866 9.76341C16.6819 9.95876 16.7917 10.2237 16.7917 10.5L16.7917 17.7916C16.7917 18.0679 16.6819 18.3329 16.4866 18.5282C16.2912 18.7236 16.0263 18.8333 15.75 18.8333L3.25 18.8333C2.97373 18.8333 2.70878 18.7236 2.51343 18.5282C2.31808 18.3329 2.20833 18.0679 2.20833 17.7916L2.20833 10.5C2.20833 10.2237 2.31808 9.95876 2.51343 9.76341C2.70878 9.56806 2.97373 9.45831 3.25 9.45831H5.33333C5.6096 9.45831 5.87455 9.34856 6.0699 9.15321C6.26525 8.95786 6.375 8.69291 6.375 8.41664C6.375 8.14038 6.26525 7.87543 6.0699 7.68008C5.87455 7.48472 5.6096 7.37498 5.33333 7.37498H3.25C2.4212 7.37498 1.62634 7.70422 1.04029 8.29027C0.45424 8.87632 0.125 9.67118 0.125 10.5L0.125 17.7916C0.125 18.6204 0.45424 19.4153 1.04029 20.0014C1.62634 20.5874 2.4212 20.9166 3.25 20.9166L15.75 20.9166C16.5788 20.9166 17.3737 20.5874 17.9597 20.0014C18.5458 19.4153 18.875 18.6204 18.875 17.7916L18.875 10.5C18.875 9.67118 18.5458 8.87632 17.9597 8.29027C17.3737 7.70422 16.5788 7.37498 15.75 7.37498Z" fill="white"/>
</svg>
