<svg width="21" height="18" viewBox="0 0 21 18" fill="none" xmlns="http://www.w3.org/2000/svg">
<path d="M0.54364 13.9697C0.604242 13.8737 0.701205 13.8677 0.834529 13.9517C3.83526 15.6831 7.25129 16.5842 10.7248 16.5604C13.1317 16.5546 15.517 16.1094 17.7607 15.2471C17.8213 15.2231 17.9092 15.1871 18.0243 15.1391C18.1394 15.0911 18.2213 15.0551 18.2697 15.0312C18.3416 14.9924 18.4255 14.982 18.5048 15.002C18.5841 15.022 18.6527 15.071 18.697 15.1391C18.8 15.283 18.7667 15.415 18.597 15.5349C18.3788 15.6908 18.1 15.8708 17.7607 16.0747C16.6694 16.7064 15.4946 17.1848 14.27 17.496C13.0428 17.8242 11.7778 17.9935 10.5066 17.9998C8.6724 18.0101 6.85272 17.6775 5.14333 17.0192C3.47791 16.3773 1.94405 15.4416 0.616362 14.2575C0.58588 14.2374 0.560289 14.2108 0.541427 14.1797C0.522566 14.1486 0.510904 14.1137 0.507278 14.0776C0.508186 14.0388 0.520855 14.0012 0.54364 13.9697ZM6.016 8.84206C5.9942 8.08803 6.21025 7.346 6.63414 6.71905C7.05631 6.12329 7.64347 5.66095 8.32494 5.38768C9.09982 5.08157 9.91337 4.88181 10.743 4.79395C11.0702 4.75797 11.6035 4.70999 12.3429 4.65002V4.34416C12.3888 3.81551 12.3013 3.28383 12.0883 2.79689C11.9508 2.61384 11.7685 2.46831 11.5587 2.37391C11.3488 2.27952 11.1182 2.23934 10.8884 2.25714H10.743C10.3684 2.28378 10.0091 2.41476 9.70667 2.63497C9.41279 2.85548 9.21198 3.176 9.14307 3.53454C9.13589 3.63317 9.09656 3.72683 9.03099 3.80145C8.96542 3.87607 8.87716 3.92762 8.77946 3.94835L6.68869 3.69647C6.48264 3.64849 6.37962 3.54054 6.37962 3.37262C6.38053 3.33007 6.38663 3.28778 6.3978 3.24668C6.46819 2.76754 6.63975 2.30845 6.9013 1.89927C7.16286 1.49009 7.50855 1.14001 7.91588 0.871792C8.76496 0.342602 9.7402 0.0446935 10.743 0.00819678H11.1975C12.3738 -0.0617717 13.5324 0.31825 14.4336 1.0697C14.5553 1.19019 14.6677 1.31949 14.77 1.45652C14.8596 1.5742 14.9416 1.69739 15.0154 1.82535C15.0905 1.97349 15.1455 2.13077 15.179 2.29313C15.2275 2.49703 15.2639 2.63796 15.2881 2.71593C15.323 2.88166 15.3413 3.0504 15.3427 3.21969C15.3548 3.47757 15.3608 3.6305 15.3608 3.67848V8.03244C15.3574 8.32287 15.4035 8.61179 15.4972 8.88703C15.5585 9.08413 15.6473 9.27184 15.7608 9.44477C15.8457 9.55872 15.985 9.74163 16.179 9.99352C16.2428 10.0769 16.2807 10.177 16.288 10.2814C16.2863 10.3319 16.2721 10.3812 16.2468 10.4251C16.2215 10.469 16.1857 10.5061 16.1426 10.5333C15.1366 11.3969 14.5912 11.8646 14.5063 11.9366C14.4303 11.9901 14.3409 12.0217 14.2479 12.0281C14.1548 12.0344 14.0618 12.0152 13.9791 11.9726C13.8094 11.8287 13.661 11.6907 13.5337 11.5588C13.4064 11.4268 13.3155 11.3309 13.261 11.2709C13.1667 11.1588 13.0787 11.0417 12.9974 10.9201C12.8762 10.7462 12.7913 10.6292 12.7428 10.5692C12.2169 11.1993 11.5246 11.6727 10.743 11.9366C10.245 12.0672 9.73086 12.1278 9.21579 12.1165C8.79437 12.1318 8.37407 12.0641 7.97928 11.9174C7.58449 11.7707 7.22305 11.5479 6.91594 11.2619C6.60434 10.9425 6.36338 10.5624 6.20844 10.1458C6.05349 9.72915 5.98796 9.28514 6.016 8.84206ZM9.14307 8.48222C9.12247 8.88683 9.24816 9.28547 9.49759 9.6067C9.61296 9.74525 9.75915 9.85551 9.92473 9.92886C10.0903 10.0022 10.2708 10.0367 10.4521 10.0295C10.504 10.0278 10.5557 10.0218 10.6066 10.0115C10.6515 10.0022 10.6971 9.99617 10.743 9.99352C10.9988 9.92494 11.2368 9.80269 11.4407 9.63505C11.6446 9.46742 11.8097 9.25832 11.9247 9.02197C12.0602 8.78856 12.1613 8.53711 12.2247 8.27532C12.2825 8.06045 12.3191 7.84052 12.3338 7.61863C12.3398 7.45071 12.3429 7.17484 12.3429 6.79102V6.34123C11.8056 6.32479 11.2684 6.37313 10.743 6.48516C10.2765 6.56858 9.85673 6.81737 9.56224 7.18496C9.26776 7.55255 9.11873 8.01375 9.14307 8.48222ZM16.7789 14.2755C16.8073 14.2221 16.8441 14.1735 16.888 14.1316C17.153 13.9455 17.4481 13.8055 17.7607 13.7178C18.2 13.6009 18.6514 13.5345 19.106 13.5199C19.2214 13.5076 19.338 13.5136 19.4515 13.5379C19.9969 13.5858 20.3241 13.6758 20.4332 13.8077C20.4883 13.9066 20.5136 14.019 20.506 14.1316V14.2575C20.4855 14.7693 20.3683 15.2727 20.1605 15.7418C19.9582 16.2719 19.6273 16.7445 19.1969 17.1182C19.1521 17.1596 19.0945 17.1849 19.0333 17.1901C19.008 17.1899 18.9831 17.1837 18.9606 17.1722C18.8879 17.1362 18.8697 17.0702 18.9061 16.9742C19.2511 16.2907 19.4785 15.5549 19.5787 14.7973C19.5872 14.696 19.5616 14.5948 19.506 14.5094C19.3848 14.3655 19.0454 14.2935 18.4879 14.2935C18.2819 14.2935 18.0394 14.3055 17.7607 14.3295C17.4577 14.3655 17.1789 14.4015 16.9244 14.4374C16.8731 14.4435 16.8213 14.4307 16.7789 14.4015C16.768 14.3934 16.7602 14.3818 16.7569 14.3687C16.7536 14.3556 16.7549 14.3417 16.7607 14.3295C16.7629 14.3104 16.7691 14.2921 16.7789 14.2755Z" fill="#243656"/>
</svg>
